<svg width="24" height="24" viewBox="0 0 24 24" fill="none" xmlns="http://www.w3.org/2000/svg">
<path d="M21.3842 13.9781C21.3133 13.7457 21.1691 13.5424 20.9731 13.3987C20.777 13.2551 20.5397 13.1788 20.2967 13.1813C20.1914 13.1847 20.0871 13.2036 19.9873 13.2375C18.7097 13.5882 17.3619 13.5942 16.0812 13.2548C14.8005 12.9155 13.6326 12.2429 12.6962 11.3056C11.7598 10.3683 11.0885 9.19964 10.7504 7.91859C10.4124 6.63754 10.4197 5.2898 10.7717 4.01251C10.7934 3.92657 10.8059 3.83858 10.8092 3.75001C10.8223 3.51527 10.7615 3.28232 10.6354 3.0839C10.5093 2.88548 10.3242 2.73156 10.1061 2.64376C9.86964 2.55208 9.60996 2.53894 9.36546 2.60626C7.72751 3.06705 6.23867 3.94847 5.0469 5.16292C3.85513 6.37736 3.00193 7.88255 2.57209 9.52889C2.14226 11.1752 2.15074 12.9054 2.59672 14.5474C3.04269 16.1895 3.91063 17.6862 5.11426 18.8889C6.31789 20.0916 7.81531 20.9584 9.45769 21.4031C11.1001 21.8478 12.8303 21.8549 14.4763 21.4238C16.1223 20.9926 17.6268 20.1383 18.8403 18.9456C20.0538 17.7528 20.9341 16.2633 21.3936 14.625C21.4512 14.4128 21.448 14.1886 21.3842 13.9781ZM11.9998 19.5C10.3461 19.5022 8.73799 18.9577 7.42573 17.9513C6.11348 16.9449 5.17065 15.533 4.74394 13.9352C4.31723 12.3375 4.43057 10.6435 5.06632 9.1168C5.70207 7.59013 6.82458 6.3164 8.25921 5.49376C8.19066 6.85751 8.40877 8.22048 8.89947 9.49474C9.39017 10.769 10.1426 11.9262 11.1081 12.8918C12.0736 13.8573 13.2309 14.6097 14.5051 15.1004C15.7794 15.5911 17.1423 15.8092 18.5061 15.7406C17.8452 16.8816 16.8965 17.8292 15.7548 18.4889C14.6131 19.1486 13.3184 19.4972 11.9998 19.5Z" fill="#FAFAFA"/>
</svg>
