<svg width="42" height="43" viewBox="0 0 42 43" fill="none" xmlns="http://www.w3.org/2000/svg">
<g clip-path="url(#clip0_302_7)">
<rect y="0.160645" width="42" height="42" fill="white"/>
<path d="M21 27.8638C20.75 27.8638 20.5156 27.8244 20.2969 27.7456C20.0781 27.6681 19.875 27.5356 19.6875 27.3481L12.9375 20.5981C12.5937 20.2544 12.4219 19.8169 12.4219 19.2856C12.4219 18.7544 12.5937 18.3169 12.9375 17.9731C13.2812 17.6294 13.7262 17.4494 14.2725 17.4331C14.82 17.4181 15.2656 17.5825 15.6094 17.9263L19.125 21.4419V8.03564C19.125 7.50439 19.305 7.05877 19.665 6.69877C20.0238 6.34002 20.4688 6.16064 21 6.16064C21.5312 6.16064 21.9769 6.34002 22.3369 6.69877C22.6956 7.05877 22.875 7.50439 22.875 8.03564V21.4419L26.3906 17.9263C26.7344 17.5825 27.18 17.4181 27.7275 17.4331C28.2738 17.4494 28.7187 17.6294 29.0625 17.9731C29.4062 18.3169 29.5781 18.7544 29.5781 19.2856C29.5781 19.8169 29.4062 20.2544 29.0625 20.5981L22.3125 27.3481C22.125 27.5356 21.9219 27.6681 21.7031 27.7456C21.4844 27.8244 21.25 27.8638 21 27.8638V27.8638ZM9.75 36.1606C8.71875 36.1606 7.83625 35.7938 7.1025 35.06C6.3675 34.325 6 33.4419 6 32.4106V28.6606C6 28.1294 6.17938 27.6838 6.53813 27.3238C6.89813 26.965 7.34375 26.7856 7.875 26.7856C8.40625 26.7856 8.85187 26.965 9.21187 27.3238C9.57062 27.6838 9.75 28.1294 9.75 28.6606V32.4106H32.25V28.6606C32.25 28.1294 32.43 27.6838 32.79 27.3238C33.1488 26.965 33.5938 26.7856 34.125 26.7856C34.6562 26.7856 35.1012 26.965 35.46 27.3238C35.82 27.6838 36 28.1294 36 28.6606V32.4106C36 33.4419 35.6331 34.325 34.8994 35.06C34.1644 35.7938 33.2813 36.1606 32.25 36.1606H9.75Z" fill="black"/>
</g>
<defs>
<clipPath id="clip0_302_7">
<rect y="0.160645" width="42" height="42" rx="4" fill="white"/>
</clipPath>
</defs>
</svg>
