<svg width="42" height="43" viewBox="0 0 42 43" fill="none" xmlns="http://www.w3.org/2000/svg">
<g clip-path="url(#clip0_302_4)">
<rect y="0.160645" width="42" height="42" fill="white"/>
<path d="M15.2067 31.8426C15.2067 31.9873 15.0444 32.1031 14.8397 32.1031C14.6069 32.1248 14.4446 32.0091 14.4446 31.8426C14.4446 31.6978 14.6069 31.5821 14.8115 31.5821C15.0232 31.5603 15.2067 31.6761 15.2067 31.8426ZM13.0121 31.5169C12.9627 31.6617 13.1038 31.8281 13.3155 31.8715C13.499 31.9439 13.7107 31.8715 13.753 31.7268C13.7954 31.5821 13.6613 31.4156 13.4496 31.3505C13.2661 31.2998 13.0615 31.3722 13.0121 31.5169ZM16.131 31.3939C15.9264 31.4445 15.7853 31.5821 15.8065 31.7485C15.8276 31.8933 16.0111 31.9873 16.2228 31.9367C16.4274 31.886 16.5685 31.7485 16.5474 31.6038C16.5262 31.4663 16.3357 31.3722 16.131 31.3939ZM20.7742 3.66064C10.9869 3.66064 3.5 11.2815 3.5 21.3196C3.5 29.3457 8.4254 36.2139 15.4607 38.6312C16.3639 38.7976 16.6815 38.2259 16.6815 37.7554C16.6815 37.3067 16.6603 34.8316 16.6603 33.3118C16.6603 33.3118 11.7208 34.3974 10.6835 31.1551C10.6835 31.1551 9.87903 29.049 8.72177 28.5062C8.72177 28.5062 7.10585 27.37 8.83468 27.3917C8.83468 27.3917 10.5917 27.5364 11.5585 29.2589C13.1038 32.0525 15.6935 31.2491 16.7026 30.7715C16.8649 29.6135 17.3236 28.8102 17.8317 28.3325C13.8871 27.8838 9.90726 27.2976 9.90726 20.3353C9.90726 18.3451 10.4435 17.3463 11.5726 16.0726C11.3891 15.6021 10.7893 13.6626 11.756 11.1585C13.2308 10.688 16.625 13.1125 16.625 13.1125C18.0363 12.7072 19.5534 12.4974 21.0565 12.4974C22.5595 12.4974 24.0766 12.7072 25.4879 13.1125C25.4879 13.1125 28.8821 10.6808 30.3569 11.1585C31.3236 13.6698 30.7238 15.6021 30.5403 16.0726C31.6694 17.3536 32.3609 18.3523 32.3609 20.3353C32.3609 27.3193 28.2046 27.8766 24.2601 28.3325C24.9093 28.9043 25.4597 29.9898 25.4597 31.6906C25.4597 34.1296 25.4385 37.1475 25.4385 37.741C25.4385 38.2114 25.7631 38.7831 26.6593 38.6167C33.7157 36.2139 38.5 29.3457 38.5 21.3196C38.5 11.2815 30.5615 3.66064 20.7742 3.66064ZM10.3589 28.622C10.2671 28.6944 10.2883 28.8608 10.4083 28.9983C10.5212 29.1141 10.6835 29.1648 10.7752 29.0707C10.8669 28.9983 10.8458 28.8319 10.7258 28.6944C10.6129 28.5786 10.4506 28.5279 10.3589 28.622ZM9.59677 28.0358C9.54738 28.1299 9.61794 28.2457 9.75907 28.318C9.87198 28.3904 10.0131 28.3687 10.0625 28.2674C10.1119 28.1733 10.0413 28.0575 9.9002 27.9851C9.75907 27.9417 9.64617 27.9634 9.59677 28.0358ZM11.8831 30.6123C11.7702 30.7063 11.8125 30.9235 11.9748 31.061C12.1371 31.2274 12.3417 31.2491 12.4335 31.1333C12.5252 31.0393 12.4829 30.8221 12.3417 30.6846C12.1865 30.5182 11.9748 30.4965 11.8831 30.6123ZM11.0786 29.5484C10.9657 29.6208 10.9657 29.8089 11.0786 29.9754C11.1915 30.1418 11.3821 30.2142 11.4738 30.1418C11.5867 30.0477 11.5867 29.8596 11.4738 29.6931C11.375 29.5267 11.1915 29.4543 11.0786 29.5484Z" fill="#050505"/>
</g>
<defs>
<clipPath id="clip0_302_4">
<rect y="0.160645" width="42" height="42" rx="4" fill="white"/>
</clipPath>
</defs>
</svg>
