<svg width="42" height="43" viewBox="0 0 42 43" fill="none" xmlns="http://www.w3.org/2000/svg">
<g clip-path="url(#clip0_302_6)">
<path d="M38.7424 0.160645H3.14127C1.39612 0.160645 0 1.56064 0 3.19398V39.1273C0 40.7606 1.39612 42.1606 3.14127 42.1606H38.8587C40.6039 42.1606 42 40.7606 42 39.1273V3.19398C41.8837 1.56064 40.4875 0.160645 38.7424 0.160645ZM12.4488 35.9773H6.16621V15.9106H12.3324V35.9773H12.4488ZM9.30748 13.1106C7.32964 13.1106 5.70083 11.4773 5.70083 9.49398C5.70083 7.51064 7.32964 5.99398 9.30748 5.99398C11.2853 5.99398 12.9141 7.62731 12.9141 9.61064C12.9141 11.594 11.2853 13.1106 9.30748 13.1106ZM35.7175 35.9773H29.5512V26.1773C29.5512 23.844 29.5512 20.8106 26.2936 20.8106C23.036 20.8106 22.5706 23.3773 22.5706 25.944V35.8606H16.2881V15.9106H22.2216V18.594H22.338C23.1524 16.9606 25.2465 15.3273 28.2715 15.3273C34.554 15.3273 35.7175 19.5273 35.7175 24.894V35.9773Z" fill="white"/>
</g>
<defs>
<clipPath id="clip0_302_6">
<rect width="42" height="42" fill="white" transform="translate(0 0.160645)"/>
</clipPath>
</defs>
</svg>
