<svg width="42" height="43" viewBox="0 0 42 43" fill="none" xmlns="http://www.w3.org/2000/svg">
<g clip-path="url(#clip0_302_5)">
<rect y="0.160645" width="50.4" height="42" fill="white"/>
<path d="M31.2661 34.5551V27.2856H35V37.7856H7V27.2856H10.7339V34.5551H31.2661Z" fill="#050505"/>
<path d="M27.4699 28.0442L28.1869 25.331L13.7524 22.3486L13.125 25.331L27.4699 28.0442ZM15.0984 18.2788L28.5454 24.6084L29.8001 21.8952L16.3531 15.5673L15.0984 18.2788ZM18.8626 11.5879L30.1586 21.1726L32.0424 18.9128L20.6568 9.32802L18.773 11.5879H18.8626ZM26.1255 4.53564L23.704 6.34387L32.5801 18.3691L35 16.5609L26.1255 4.53564ZM13.125 31.6606H27.4699V28.9491H13.125V31.6606Z" fill="#050505"/>
</g>
<defs>
<clipPath id="clip0_302_5">
<rect y="0.160645" width="42" height="42" rx="4" fill="white"/>
</clipPath>
</defs>
</svg>
